<?xml version="1.0" standalone="no"?>
<!DOCTYPE svg PUBLIC "-//W3C//DTD SVG 20010904//EN"
 "http://www.w3.org/TR/2001/REC-SVG-20010904/DTD/svg10.dtd">
<svg version="1.0" xmlns="http://www.w3.org/2000/svg"
 width="500.000000pt" height="500.000000pt" viewBox="0 0 500.000000 500.000000"
 preserveAspectRatio="xMidYMid meet">

<g transform="translate(0.000000,500.000000) scale(0.100000,-0.100000)"
fill="#000000" stroke="none">
<path d="M1834 3343 c26 -166 39 -1874 15 -2050 -18 -134 -66 -207 -176 -265
-40 -21 -53 -40 -35 -51 10 -7 160 18 228 38 149 43 274 137 327 245 56 115
57 125 57 982 0 688 8 1038 25 1116 l5 22 -226 0 -226 0 6 -37z"/>
<path d="M2487 3279 c10 -135 10 -1552 0 -1686 l-8 -103 222 0 221 0 -6 43
c-4 23 -9 221 -12 440 l-6 397 188 0 c495 0 741 114 809 375 17 67 19 179 4
244 -38 165 -176 288 -383 341 -141 36 -220 42 -629 47 l-408 5 8 -103z m711
36 c209 -50 312 -195 312 -445 0 -152 -43 -273 -123 -347 -86 -80 -157 -102
-349 -110 l-138 -6 0 462 0 461 118 0 c68 0 143 -6 180 -15z"/>
</g>
</svg>
